<svg height="509.87489pt" viewBox="0 0 509.87489 509.87489" width="509.87489pt" xmlns="http://www.w3.org/2000/svg"><path d="m23.503906 198.367188 174.863282-174.863282c31.242187-31.242187 81.898437-31.242187 113.140624 0l174.863282 174.863282c31.242187 31.242187 31.242187 81.898437 0 113.140624l-174.863282 174.863282c-31.242187 31.242187-81.898437 31.242187-113.140624 0l-174.863282-174.863282c-31.242187-31.242187-31.242187-81.898437 0-113.140624zm0 0" fill="#ffda6b"/><g fill="#fff"><path d="m254.929688 142.9375c8.835937 0 16 7.164062 16 16v128c0 8.835938-7.164063 16-16 16-8.835938 0-16-7.164062-16-16v-128c0-8.835938 7.164062-16 16-16zm0 0"/><path d="m238.929688 334.9375h32v32h-32zm0 0"/></g></svg>